<svg width="32" height="32" viewBox="0 0 32 32" fill="none" xmlns="http://www.w3.org/2000/svg">
<path d="M23.3371 23.7761C22.7054 24.4096 21.6925 24.6636 20.7487 24.0881C20.4655 23.9153 20.1455 23.8119 19.8147 23.7862C19.484 23.7605 19.1518 23.8133 18.8453 23.9402C18.5388 24.0671 18.2666 24.2646 18.0508 24.5167C17.8351 24.7687 17.6819 25.0681 17.6037 25.3905C17.0826 27.5364 14.0292 27.5372 13.5072 25.3905C13.429 25.0683 13.2758 24.7692 13.0602 24.5174C12.8445 24.2656 12.5725 24.0682 12.2663 23.9413C11.96 23.8144 11.6281 23.7615 11.2976 23.787C10.967 23.8125 10.6472 23.9157 10.364 24.0881C8.47821 25.2375 6.31933 23.0786 7.46878 21.1929C7.64152 20.9096 7.74495 20.5896 7.77065 20.2589C7.79634 19.9281 7.74357 19.596 7.61664 19.2894C7.48971 18.9829 7.2922 18.7107 7.04018 18.495C6.78817 18.2792 6.48877 18.126 6.16636 18.0479C4.02045 17.5267 4.01959 14.4734 6.16636 13.9514C7.55606 13.6126 8.21116 12.0276 7.46878 10.8081C6.31933 8.92235 8.47821 6.76347 10.364 7.91292C10.6472 8.08566 10.9672 8.18909 11.298 8.21479C11.6287 8.24048 11.9609 8.18772 12.2674 8.06078C12.5739 7.93385 12.8461 7.73634 13.0618 7.48432C13.2776 7.23231 13.4308 6.93291 13.509 6.6105C14.0301 4.46459 17.0835 4.46373 17.6055 6.6105C17.6837 6.93266 17.8369 7.2318 18.0525 7.48361C18.2682 7.73542 18.5402 7.9328 18.8464 8.05971C19.1527 8.18661 19.4846 8.23946 19.8151 8.21395C20.1457 8.18845 20.4655 8.08531 20.7487 7.91292C21.7002 7.33301 22.7209 7.59488 23.3518 8.23787" stroke="white" stroke-width="2" stroke-linecap="round" stroke-linejoin="round"/>
<rect x="10" y="11" width="21.8571" height="9" rx="2" fill="#129A00"/>
<path d="M13.49 18V13.338H16.339V14.22H14.505V15.284H16.024V16.159H14.505V18H13.49ZM16.2482 18L17.9562 13.338H19.1742L20.9032 18H19.8532L19.4752 16.936H17.6412L17.2842 18H16.2482ZM17.9352 16.068H19.1742L18.5442 14.283L17.9352 16.068ZM22.6722 18.091C22.3969 18.091 22.1355 18.0607 21.8882 18C21.6455 17.9393 21.4379 17.8577 21.2652 17.755L21.3492 16.817C21.5592 16.9477 21.7785 17.0503 22.0072 17.125C22.2405 17.195 22.4552 17.23 22.6512 17.23C22.8752 17.23 23.0572 17.1833 23.1972 17.09C23.3372 16.9967 23.4072 16.873 23.4072 16.719C23.4072 16.607 23.3722 16.5207 23.3022 16.46C23.2322 16.3947 23.1412 16.3387 23.0292 16.292C22.9172 16.2453 22.7935 16.194 22.6582 16.138C22.5042 16.0727 22.3455 16.005 22.1822 15.935C22.0235 15.865 21.8742 15.781 21.7342 15.683C21.5989 15.5803 21.4869 15.4497 21.3982 15.291C21.3142 15.1323 21.2722 14.9317 21.2722 14.689C21.2722 14.2457 21.4239 13.8957 21.7272 13.639C22.0305 13.3777 22.4529 13.247 22.9942 13.247C23.4095 13.247 23.8295 13.331 24.2542 13.499L24.1002 14.423C23.9275 14.325 23.7409 14.248 23.5402 14.192C23.3442 14.136 23.1575 14.108 22.9802 14.108C22.7609 14.108 22.5905 14.1523 22.4692 14.241C22.3479 14.325 22.2872 14.4393 22.2872 14.584C22.2872 14.7193 22.3362 14.8243 22.4342 14.899C22.5369 14.969 22.6652 15.0367 22.8192 15.102C22.9732 15.1673 23.1412 15.235 23.3232 15.305C23.5099 15.3703 23.6849 15.4567 23.8482 15.564C24.0162 15.6667 24.1539 15.8067 24.2612 15.984C24.3685 16.1567 24.4222 16.3807 24.4222 16.656C24.4222 17.1087 24.2682 17.461 23.9602 17.713C23.6569 17.965 23.2275 18.091 22.6722 18.091ZM26.2213 18V14.22H24.9473V13.338H28.5033V14.22H27.2433V18H26.2213Z" fill="white"/>
</svg>
