<svg width="32" height="32" viewBox="0 0 32 32" fill="none" xmlns="http://www.w3.org/2000/svg">
<path d="M23.3371 23.7761C22.7054 24.4096 21.6925 24.6636 20.7487 24.0881C20.4655 23.9153 20.1455 23.8119 19.8147 23.7862C19.484 23.7605 19.1518 23.8133 18.8453 23.9402C18.5388 24.0671 18.2666 24.2646 18.0508 24.5167C17.8351 24.7687 17.6819 25.0681 17.6037 25.3905C17.0826 27.5364 14.0292 27.5372 13.5072 25.3905C13.429 25.0683 13.2758 24.7692 13.0602 24.5174C12.8445 24.2656 12.5725 24.0682 12.2663 23.9413C11.96 23.8144 11.6281 23.7615 11.2976 23.787C10.967 23.8125 10.6472 23.9157 10.364 24.0881C8.47821 25.2375 6.31933 23.0786 7.46878 21.1929C7.64152 20.9096 7.74495 20.5896 7.77065 20.2589C7.79634 19.9281 7.74357 19.596 7.61664 19.2894C7.48971 18.9829 7.2922 18.7107 7.04018 18.495C6.78817 18.2792 6.48877 18.126 6.16636 18.0479C4.02045 17.5267 4.01959 14.4734 6.16636 13.9514C7.55606 13.6126 8.21116 12.0276 7.46878 10.8081C6.31933 8.92235 8.47821 6.76347 10.364 7.91292C10.6472 8.08566 10.9672 8.18909 11.298 8.21479C11.6287 8.24048 11.9609 8.18772 12.2674 8.06078C12.5739 7.93385 12.8461 7.73634 13.0618 7.48432C13.2776 7.23231 13.4308 6.93291 13.509 6.6105C14.0301 4.46459 17.0835 4.46373 17.6055 6.6105C17.6837 6.93266 17.8369 7.2318 18.0525 7.48361C18.2682 7.73542 18.5402 7.9328 18.8464 8.05971C19.1527 8.18661 19.4846 8.23946 19.8151 8.21395C20.1457 8.18845 20.4655 8.08531 20.7487 7.91292C21.7002 7.33301 22.7209 7.59488 23.3518 8.23787" stroke="white" stroke-width="2" stroke-linecap="round" stroke-linejoin="round"/>
<rect x="10" y="11" width="21.8571" height="9" rx="2" fill="#FC9300"/>
<path d="M12.722 18.091C12.4467 18.091 12.1853 18.0607 11.938 18C11.6953 17.9393 11.4877 17.8577 11.315 17.755L11.399 16.817C11.609 16.9477 11.8283 17.0503 12.057 17.125C12.2903 17.195 12.505 17.23 12.701 17.23C12.925 17.23 13.107 17.1833 13.247 17.09C13.387 16.9967 13.457 16.873 13.457 16.719C13.457 16.607 13.422 16.5207 13.352 16.46C13.282 16.3947 13.191 16.3387 13.079 16.292C12.967 16.2453 12.8433 16.194 12.708 16.138C12.554 16.0727 12.3953 16.005 12.232 15.935C12.0733 15.865 11.924 15.781 11.784 15.683C11.6487 15.5803 11.5367 15.4497 11.448 15.291C11.364 15.1323 11.322 14.9317 11.322 14.689C11.322 14.2457 11.4737 13.8957 11.777 13.639C12.0803 13.3777 12.5027 13.247 13.044 13.247C13.4593 13.247 13.8793 13.331 14.304 13.499L14.15 14.423C13.9773 14.325 13.7907 14.248 13.59 14.192C13.394 14.136 13.2073 14.108 13.03 14.108C12.8107 14.108 12.6403 14.1523 12.519 14.241C12.3977 14.325 12.337 14.4393 12.337 14.584C12.337 14.7193 12.386 14.8243 12.484 14.899C12.5867 14.969 12.715 15.0367 12.869 15.102C13.023 15.1673 13.191 15.235 13.373 15.305C13.5597 15.3703 13.7347 15.4567 13.898 15.564C14.066 15.6667 14.2037 15.8067 14.311 15.984C14.4183 16.1567 14.472 16.3807 14.472 16.656C14.472 17.1087 14.318 17.461 14.01 17.713C13.7067 17.965 13.2773 18.091 12.722 18.091ZM15.2771 18V13.338H16.2921V17.118H17.9721V18H15.2771ZM20.6038 18.091C20.1418 18.091 19.7358 17.9907 19.3858 17.79C19.0405 17.5893 18.7698 17.3093 18.5738 16.95C18.3825 16.586 18.2868 16.166 18.2868 15.69C18.2868 15.2047 18.3825 14.7823 18.5738 14.423C18.7698 14.0637 19.0405 13.7837 19.3858 13.583C19.7358 13.3823 20.1418 13.282 20.6038 13.282C21.0658 13.282 21.4695 13.3823 21.8148 13.583C22.1648 13.779 22.4355 14.0567 22.6268 14.416C22.8182 14.7707 22.9138 15.186 22.9138 15.662C22.9138 16.1473 22.8182 16.572 22.6268 16.936C22.4355 17.3 22.1648 17.5847 21.8148 17.79C21.4695 17.9907 21.0658 18.091 20.6038 18.091ZM20.6038 17.202C20.9912 17.202 21.2992 17.0643 21.5278 16.789C21.7565 16.5137 21.8708 16.1473 21.8708 15.69C21.8708 15.3867 21.8172 15.1207 21.7098 14.892C21.6072 14.6633 21.4602 14.486 21.2688 14.36C21.0775 14.234 20.8558 14.1733 20.6038 14.178C20.3518 14.1733 20.1302 14.234 19.9388 14.36C19.7522 14.486 19.6052 14.6633 19.4978 14.892C19.3905 15.1207 19.3368 15.3867 19.3368 15.69C19.3368 15.9933 19.3882 16.2593 19.4908 16.488C19.5982 16.712 19.7475 16.887 19.9388 17.013C20.1302 17.139 20.3518 17.202 20.6038 17.202ZM24.4998 18L23.3028 13.338H24.3808L25.1928 16.691L26.0258 13.366L27.3348 13.268L28.2168 16.789L29.0358 13.338H30.0368L28.7768 18H27.5518L26.6488 14.311L25.7108 18H24.4998Z" fill="white"/>
</svg>
